#tb 0: 1/25
0,          0,          0,        1, 16384000, 0xed33166a
0,          1,          1,        1, 16384000, 0x4fb4c950
0,          2,          2,        1, 16384000, 0x93a7c76c
0,          3,          3,        1, 16384000, 0xd688cf7e
0,          4,          4,        1, 16384000, 0x06f28168
0,          5,          5,        1, 16384000, 0xcb4e24b3
0,          6,          6,        1, 16384000, 0xa6eaf8d7
0,          7,          7,        1, 16384000, 0xb84c75e2
0,          8,          8,        1, 16384000, 0xdb21e1ca
0,          9,          9,        1, 16384000, 0xb5b099ec
0,         10,         10,        1, 16384000, 0x3f730c27
0,         11,         11,        1, 16384000, 0x416b90f8
0,         12,         12,        1, 16384000, 0x115834cf
0,         13,         13,        1, 16384000, 0xa499be19
